<svg width="141" height="141" viewBox="0 0 141 141" fill="none" xmlns="http://www.w3.org/2000/svg">
<g clip-path="url(#clip0_2_3)">
<path d="M70.5 108.868C54.6444 108.868 37.5798 102.667 21.1513 90.9349C8.87007 82.1649 1.28994 73.4764 0.973195 73.1102C-0.324398 71.6119 -0.324398 69.388 0.973195 67.8895C1.28994 67.5239 8.86976 58.8347 21.1513 50.0648C37.5801 38.3338 54.6447 32.1323 70.5 32.1323C86.3556 32.1323 103.421 38.3335 119.849 50.0648C132.13 58.8347 139.71 67.5236 140.027 67.8895C141.324 69.3877 141.324 71.6116 140.027 73.1102C139.71 73.4757 132.13 82.1649 119.849 90.9349C103.421 102.666 86.356 108.868 70.5 108.868ZM9.4538 70.5003C12.5192 73.626 18.3044 79.1222 25.9429 84.5579C36.4149 92.0095 52.6457 100.893 70.5 100.893C88.3543 100.893 104.585 92.0095 115.057 84.5579C122.695 79.1232 128.48 73.6263 131.546 70.5003C128.481 67.3747 122.696 61.8784 115.057 56.4427C104.585 48.9908 88.3543 40.1074 70.5 40.1074C52.6457 40.1074 36.4149 48.9908 25.9429 56.4427C18.3054 61.8774 12.5198 67.3737 9.4538 70.5003Z" fill="black"/>
<path d="M70.5 78.4747C66.1029 78.4747 62.5256 74.8974 62.5256 70.5003C62.5256 66.1032 66.1029 62.5259 70.5 62.5259C74.8974 62.5259 78.4744 66.1032 78.4744 70.5003C78.4744 74.8974 74.8974 78.4747 70.5 78.4747Z" fill="black"/>
<path d="M70 42C53.9872 42 41 54.8539 41 70.7079C41 83.3919 49.3085 94.1526 60.8336 97.9492C62.2812 98.2148 62.75 97.3248 62.75 96.5688V91.2244C54.6832 92.9612 53.0036 87.8369 53.0036 87.8369C51.6841 84.5187 49.7822 83.636 49.7822 83.636C47.1504 81.8537 49.9828 81.8919 49.9828 81.8919C52.8948 82.0929 54.427 84.8513 54.427 84.8513C57.0128 89.2388 61.2106 87.9708 62.866 87.2364C63.1246 85.3823 63.8762 84.1144 64.7075 83.3991C58.2671 82.6695 51.4956 80.2078 51.4956 69.2103C51.4956 66.0739 52.629 63.5141 54.4826 61.5046C54.1829 60.7797 53.1897 57.8587 54.7653 53.9066C54.7653 53.9066 57.2013 53.1363 62.7428 56.8491C65.0555 56.2128 67.535 55.8946 70 55.8826C72.465 55.8946 74.9469 56.2128 77.2645 56.8491C82.8011 53.1363 85.2323 53.9066 85.2323 53.9066C86.8103 57.8611 85.8171 60.7821 85.5174 61.5046C87.3783 63.5141 88.502 66.0763 88.502 69.2103C88.502 80.2365 81.7184 82.6647 75.2611 83.3752C76.3003 84.2651 77.25 86.0115 77.25 88.6909V96.5688C77.25 97.332 77.714 98.2291 79.1858 97.9468C90.7012 94.1454 99 83.3872 99 70.7079C99 54.8539 86.0153 42 70 42Z" fill="black"/>
</g>
<defs>
<clipPath id="clip0_2_3">
<rect width="141" height="141" fill="white"/>
</clipPath>
</defs>
</svg>
